<mxfile host="app.diagrams.net" modified="2023-04-30T23:57:05.857Z" agent="Mozilla/5.0 (Windows NT 10.0; Win64; x64) AppleWebKit/537.36 (KHTML, like Gecko) Chrome/112.0.0.0 Safari/537.36 Edg/112.0.1722.64" etag="Xfj4LjpMCmCjNRa6SHR8" version="21.2.3" type="github">
  <diagram name="Pagina-1" id="5jM1S9QyfaLW6f3JCL6n">
    <mxGraphModel dx="1942" dy="1134" grid="1" gridSize="10" guides="1" tooltips="1" connect="1" arrows="1" fold="1" page="1" pageScale="1" pageWidth="827" pageHeight="1169" math="0" shadow="0">
      <root>
        <mxCell id="0" />
        <mxCell id="1" parent="0" />
        <mxCell id="YThsAyTlzjn3kSZtY9Mx-7" value="" style="rounded=1;whiteSpace=wrap;html=1;fillColor=#dae8fc;strokeColor=#6c8ebf;opacity=60;" parent="1" vertex="1">
          <mxGeometry x="110" y="170" width="910" height="770" as="geometry" />
        </mxCell>
        <mxCell id="YThsAyTlzjn3kSZtY9Mx-4" value="" style="rounded=1;whiteSpace=wrap;html=1;fillColor=#fff2cc;strokeColor=#d6b656;opacity=60;" parent="1" vertex="1">
          <mxGeometry x="120" y="190" width="630" height="660" as="geometry" />
        </mxCell>
        <mxCell id="YThsAyTlzjn3kSZtY9Mx-5" value="&lt;font style=&quot;font-size: 14px;&quot;&gt;Application&lt;/font&gt;" style="text;html=1;strokeColor=none;fillColor=none;align=center;verticalAlign=middle;whiteSpace=wrap;rounded=0;strokeWidth=3;" parent="1" vertex="1">
          <mxGeometry x="311" y="200" width="206" height="40" as="geometry" />
        </mxCell>
        <mxCell id="LTp8fWtRzP7bLeBBjzg3-25" style="edgeStyle=orthogonalEdgeStyle;rounded=0;orthogonalLoop=1;jettySize=auto;html=1;exitX=1;exitY=0.5;exitDx=0;exitDy=0;exitPerimeter=0;entryX=1;entryY=0.5;entryDx=0;entryDy=0;" edge="1" parent="1" source="YThsAyTlzjn3kSZtY9Mx-8" target="LTp8fWtRzP7bLeBBjzg3-20">
          <mxGeometry relative="1" as="geometry" />
        </mxCell>
        <mxCell id="YThsAyTlzjn3kSZtY9Mx-8" value="Store 1" style="outlineConnect=0;dashed=0;verticalLabelPosition=bottom;verticalAlign=top;align=center;html=1;shape=mxgraph.aws3.encrypted_data;fillColor=#7D7C7C;gradientColor=none;" parent="1" vertex="1">
          <mxGeometry x="860" y="450" width="43.5" height="55.5" as="geometry" />
        </mxCell>
        <mxCell id="LTp8fWtRzP7bLeBBjzg3-26" style="edgeStyle=orthogonalEdgeStyle;rounded=0;orthogonalLoop=1;jettySize=auto;html=1;exitX=1;exitY=0.5;exitDx=0;exitDy=0;exitPerimeter=0;entryX=1;entryY=0.5;entryDx=0;entryDy=0;" edge="1" parent="1" source="YThsAyTlzjn3kSZtY9Mx-9" target="LTp8fWtRzP7bLeBBjzg3-20">
          <mxGeometry relative="1" as="geometry" />
        </mxCell>
        <mxCell id="YThsAyTlzjn3kSZtY9Mx-9" value="Store 2" style="outlineConnect=0;dashed=0;verticalLabelPosition=bottom;verticalAlign=top;align=center;html=1;shape=mxgraph.aws3.encrypted_data;fillColor=#7D7C7C;gradientColor=none;" parent="1" vertex="1">
          <mxGeometry x="860" y="607.25" width="43.5" height="55.5" as="geometry" />
        </mxCell>
        <mxCell id="YThsAyTlzjn3kSZtY9Mx-10" value="Store 3" style="outlineConnect=0;dashed=0;verticalLabelPosition=bottom;verticalAlign=top;align=center;html=1;shape=mxgraph.aws3.encrypted_data;fillColor=#7D7C7C;gradientColor=none;" parent="1" vertex="1">
          <mxGeometry x="860" y="730" width="43.5" height="55.5" as="geometry" />
        </mxCell>
        <mxCell id="YThsAyTlzjn3kSZtY9Mx-12" value="" style="rounded=1;whiteSpace=wrap;html=1;fillColor=#60a917;strokeColor=#2D7600;opacity=60;fontColor=#ffffff;" parent="1" vertex="1">
          <mxGeometry x="480" y="405.5" width="240" height="144.5" as="geometry" />
        </mxCell>
        <mxCell id="YThsAyTlzjn3kSZtY9Mx-13" value="&lt;span style=&quot;font-size: 14px;&quot;&gt;Go routine&lt;/span&gt;" style="text;html=1;strokeColor=none;fillColor=none;align=center;verticalAlign=middle;whiteSpace=wrap;rounded=0;strokeWidth=3;" parent="1" vertex="1">
          <mxGeometry x="497" y="405.5" width="206" height="40" as="geometry" />
        </mxCell>
        <mxCell id="YThsAyTlzjn3kSZtY9Mx-15" value="" style="rounded=1;whiteSpace=wrap;html=1;fillColor=#60a917;strokeColor=#2D7600;opacity=60;fontColor=#ffffff;" parent="1" vertex="1">
          <mxGeometry x="480" y="562.75" width="240" height="144.5" as="geometry" />
        </mxCell>
        <mxCell id="YThsAyTlzjn3kSZtY9Mx-14" value="&lt;span style=&quot;font-size: 14px;&quot;&gt;Go routine&lt;/span&gt;" style="text;html=1;strokeColor=none;fillColor=none;align=center;verticalAlign=middle;whiteSpace=wrap;rounded=0;strokeWidth=3;" parent="1" vertex="1">
          <mxGeometry x="497" y="562.75" width="206" height="40" as="geometry" />
        </mxCell>
        <mxCell id="YThsAyTlzjn3kSZtY9Mx-19" value="Operator" style="rounded=0;whiteSpace=wrap;html=1;strokeWidth=1;fontFamily=Helvetica;fontSize=12;" parent="1" vertex="1">
          <mxGeometry x="497" y="436.63" width="63" height="82.25" as="geometry" />
        </mxCell>
        <mxCell id="YThsAyTlzjn3kSZtY9Mx-20" value="Operator" style="rounded=0;whiteSpace=wrap;html=1;strokeWidth=1;fontFamily=Helvetica;fontSize=12;" parent="1" vertex="1">
          <mxGeometry x="497" y="593.88" width="63" height="82.25" as="geometry" />
        </mxCell>
        <mxCell id="YThsAyTlzjn3kSZtY9Mx-22" value="" style="endArrow=none;html=1;rounded=0;fontFamily=Helvetica;fontSize=12;fontColor=default;strokeWidth=4;exitX=1;exitY=0.5;exitDx=0;exitDy=0;entryX=0;entryY=0.5;entryDx=0;entryDy=0;" parent="1" edge="1" target="YThsAyTlzjn3kSZtY9Mx-19" source="LTp8fWtRzP7bLeBBjzg3-1">
          <mxGeometry width="50" height="50" relative="1" as="geometry">
            <mxPoint x="410" y="564.5" as="sourcePoint" />
            <mxPoint x="460" y="514.5" as="targetPoint" />
          </mxGeometry>
        </mxCell>
        <mxCell id="LTp8fWtRzP7bLeBBjzg3-9" value="Chan" style="edgeLabel;html=1;align=center;verticalAlign=middle;resizable=0;points=[];labelBackgroundColor=default;" vertex="1" connectable="0" parent="YThsAyTlzjn3kSZtY9Mx-22">
          <mxGeometry x="0.1578" relative="1" as="geometry">
            <mxPoint as="offset" />
          </mxGeometry>
        </mxCell>
        <mxCell id="LTp8fWtRzP7bLeBBjzg3-23" style="edgeStyle=orthogonalEdgeStyle;rounded=0;orthogonalLoop=1;jettySize=auto;html=1;exitX=0.5;exitY=0;exitDx=0;exitDy=0;entryX=0;entryY=0.5;entryDx=0;entryDy=0;" edge="1" parent="1" source="LTp8fWtRzP7bLeBBjzg3-1" target="LTp8fWtRzP7bLeBBjzg3-20">
          <mxGeometry relative="1" as="geometry" />
        </mxCell>
        <mxCell id="LTp8fWtRzP7bLeBBjzg3-1" value="&lt;font style=&quot;font-size: 17px;&quot;&gt;Server&lt;/font&gt;" style="rounded=0;whiteSpace=wrap;html=1;" vertex="1" parent="1">
          <mxGeometry x="260" y="540" width="120" height="48" as="geometry" />
        </mxCell>
        <mxCell id="LTp8fWtRzP7bLeBBjzg3-2" value="" style="endArrow=none;html=1;rounded=0;fontFamily=Helvetica;fontSize=12;fontColor=default;strokeWidth=4;exitX=1;exitY=0.5;exitDx=0;exitDy=0;entryX=0;entryY=0.5;entryDx=0;entryDy=0;" edge="1" parent="1" source="LTp8fWtRzP7bLeBBjzg3-1" target="YThsAyTlzjn3kSZtY9Mx-20">
          <mxGeometry width="50" height="50" relative="1" as="geometry">
            <mxPoint x="400" y="622.75" as="sourcePoint" />
            <mxPoint x="450" y="572.75" as="targetPoint" />
          </mxGeometry>
        </mxCell>
        <mxCell id="LTp8fWtRzP7bLeBBjzg3-8" value="Chan" style="edgeLabel;html=1;align=center;verticalAlign=middle;resizable=0;points=[];" vertex="1" connectable="0" parent="LTp8fWtRzP7bLeBBjzg3-2">
          <mxGeometry x="0.1617" relative="1" as="geometry">
            <mxPoint as="offset" />
          </mxGeometry>
        </mxCell>
        <mxCell id="LTp8fWtRzP7bLeBBjzg3-4" value="" style="edgeStyle=orthogonalEdgeStyle;rounded=0;orthogonalLoop=1;jettySize=auto;html=1;" edge="1" parent="1" source="LTp8fWtRzP7bLeBBjzg3-3" target="LTp8fWtRzP7bLeBBjzg3-1">
          <mxGeometry relative="1" as="geometry" />
        </mxCell>
        <mxCell id="LTp8fWtRzP7bLeBBjzg3-3" value="Auth&lt;br&gt;MIddleware" style="rounded=0;whiteSpace=wrap;html=1;" vertex="1" parent="1">
          <mxGeometry x="140" y="540.75" width="90" height="47.25" as="geometry" />
        </mxCell>
        <mxCell id="LTp8fWtRzP7bLeBBjzg3-7" value="" style="edgeStyle=orthogonalEdgeStyle;rounded=0;orthogonalLoop=1;jettySize=auto;html=1;" edge="1" parent="1" source="LTp8fWtRzP7bLeBBjzg3-6" target="LTp8fWtRzP7bLeBBjzg3-3">
          <mxGeometry relative="1" as="geometry" />
        </mxCell>
        <mxCell id="LTp8fWtRzP7bLeBBjzg3-6" value="Actor" style="shape=umlActor;verticalLabelPosition=bottom;verticalAlign=top;html=1;outlineConnect=0;" vertex="1" parent="1">
          <mxGeometry x="20" y="534" width="30" height="60" as="geometry" />
        </mxCell>
        <mxCell id="LTp8fWtRzP7bLeBBjzg3-10" value="ACL&lt;br&gt;System" style="rounded=0;whiteSpace=wrap;html=1;" vertex="1" parent="1">
          <mxGeometry x="275" y="700" width="90" height="80" as="geometry" />
        </mxCell>
        <mxCell id="LTp8fWtRzP7bLeBBjzg3-13" value="" style="endArrow=classic;startArrow=classic;html=1;rounded=0;entryX=0.5;entryY=1;entryDx=0;entryDy=0;exitX=0.5;exitY=0;exitDx=0;exitDy=0;" edge="1" parent="1" source="LTp8fWtRzP7bLeBBjzg3-10" target="LTp8fWtRzP7bLeBBjzg3-1">
          <mxGeometry width="50" height="50" relative="1" as="geometry">
            <mxPoint x="260" y="670" as="sourcePoint" />
            <mxPoint x="310" y="620" as="targetPoint" />
          </mxGeometry>
        </mxCell>
        <mxCell id="LTp8fWtRzP7bLeBBjzg3-14" value="Update&lt;br&gt;Remove&lt;br&gt;Create" style="text;strokeColor=none;fillColor=none;align=left;verticalAlign=middle;spacingLeft=4;spacingRight=4;overflow=hidden;points=[[0,0.5],[1,0.5]];portConstraint=eastwest;rotatable=0;whiteSpace=wrap;html=1;" vertex="1" parent="1">
          <mxGeometry x="623" y="452.75" width="80" height="50" as="geometry" />
        </mxCell>
        <mxCell id="LTp8fWtRzP7bLeBBjzg3-15" value="Update&lt;br&gt;Remove&lt;br&gt;Create" style="text;strokeColor=none;fillColor=none;align=left;verticalAlign=middle;spacingLeft=4;spacingRight=4;overflow=hidden;points=[[0,0.5],[1,0.5]];portConstraint=eastwest;rotatable=0;whiteSpace=wrap;html=1;" vertex="1" parent="1">
          <mxGeometry x="623" y="610" width="80" height="50" as="geometry" />
        </mxCell>
        <mxCell id="LTp8fWtRzP7bLeBBjzg3-16" value="" style="endArrow=classic;html=1;rounded=0;strokeWidth=3;exitX=1;exitY=0.5;exitDx=0;exitDy=0;entryX=0;entryY=0.5;entryDx=0;entryDy=0;entryPerimeter=0;" edge="1" parent="1" source="YThsAyTlzjn3kSZtY9Mx-12" target="YThsAyTlzjn3kSZtY9Mx-8">
          <mxGeometry width="50" height="50" relative="1" as="geometry">
            <mxPoint x="750" y="480" as="sourcePoint" />
            <mxPoint x="800" y="430" as="targetPoint" />
          </mxGeometry>
        </mxCell>
        <mxCell id="LTp8fWtRzP7bLeBBjzg3-18" value="Write" style="edgeLabel;html=1;align=center;verticalAlign=middle;resizable=0;points=[];" vertex="1" connectable="0" parent="LTp8fWtRzP7bLeBBjzg3-16">
          <mxGeometry x="0.1163" relative="1" as="geometry">
            <mxPoint as="offset" />
          </mxGeometry>
        </mxCell>
        <mxCell id="LTp8fWtRzP7bLeBBjzg3-17" value="" style="endArrow=classic;html=1;rounded=0;strokeWidth=3;exitX=1;exitY=0.5;exitDx=0;exitDy=0;entryX=0;entryY=0.5;entryDx=0;entryDy=0;entryPerimeter=0;" edge="1" parent="1" source="YThsAyTlzjn3kSZtY9Mx-15" target="YThsAyTlzjn3kSZtY9Mx-9">
          <mxGeometry width="50" height="50" relative="1" as="geometry">
            <mxPoint x="730" y="622.75" as="sourcePoint" />
            <mxPoint x="870" y="622.75" as="targetPoint" />
          </mxGeometry>
        </mxCell>
        <mxCell id="LTp8fWtRzP7bLeBBjzg3-19" value="Write" style="edgeLabel;html=1;align=center;verticalAlign=middle;resizable=0;points=[];" vertex="1" connectable="0" parent="LTp8fWtRzP7bLeBBjzg3-17">
          <mxGeometry x="0.0837" y="1" relative="1" as="geometry">
            <mxPoint as="offset" />
          </mxGeometry>
        </mxCell>
        <mxCell id="LTp8fWtRzP7bLeBBjzg3-27" style="edgeStyle=orthogonalEdgeStyle;rounded=0;orthogonalLoop=1;jettySize=auto;html=1;exitX=0;exitY=0.5;exitDx=0;exitDy=0;" edge="1" parent="1" source="LTp8fWtRzP7bLeBBjzg3-20">
          <mxGeometry relative="1" as="geometry">
            <mxPoint x="320" y="540" as="targetPoint" />
          </mxGeometry>
        </mxCell>
        <mxCell id="LTp8fWtRzP7bLeBBjzg3-20" value="Unlock" style="rounded=0;whiteSpace=wrap;html=1;" vertex="1" parent="1">
          <mxGeometry x="477" y="280" width="83" height="70" as="geometry" />
        </mxCell>
        <mxCell id="LTp8fWtRzP7bLeBBjzg3-28" value="ACL" style="rounded=0;whiteSpace=wrap;html=1;strokeWidth=1;fontFamily=Helvetica;fontSize=12;" vertex="1" parent="1">
          <mxGeometry x="560" y="594" width="63" height="82.25" as="geometry" />
        </mxCell>
        <mxCell id="LTp8fWtRzP7bLeBBjzg3-29" value="ACL" style="rounded=0;whiteSpace=wrap;html=1;strokeWidth=1;fontFamily=Helvetica;fontSize=12;" vertex="1" parent="1">
          <mxGeometry x="560" y="436.63" width="63" height="82.25" as="geometry" />
        </mxCell>
        <mxCell id="LTp8fWtRzP7bLeBBjzg3-31" value="Actor" style="shape=umlActor;verticalLabelPosition=bottom;verticalAlign=top;html=1;outlineConnect=0;" vertex="1" parent="1">
          <mxGeometry x="40" y="1070" width="30" height="60" as="geometry" />
        </mxCell>
        <mxCell id="LTp8fWtRzP7bLeBBjzg3-32" value="&lt;font style=&quot;font-size: 17px;&quot;&gt;Service&lt;/font&gt;" style="rounded=0;whiteSpace=wrap;html=1;" vertex="1" parent="1">
          <mxGeometry x="185" y="1065" width="120" height="80" as="geometry" />
        </mxCell>
        <mxCell id="LTp8fWtRzP7bLeBBjzg3-34" value="DISK" style="shape=cylinder3;whiteSpace=wrap;html=1;boundedLbl=1;backgroundOutline=1;size=15;" vertex="1" parent="1">
          <mxGeometry x="405" y="1070" width="60" height="80" as="geometry" />
        </mxCell>
        <mxCell id="LTp8fWtRzP7bLeBBjzg3-36" value="" style="rounded=1;whiteSpace=wrap;html=1;" vertex="1" parent="1">
          <mxGeometry x="47.5" y="1270" width="15" height="80" as="geometry" />
        </mxCell>
        <mxCell id="LTp8fWtRzP7bLeBBjzg3-52" style="edgeStyle=orthogonalEdgeStyle;rounded=0;orthogonalLoop=1;jettySize=auto;html=1;exitX=1.055;exitY=0.168;exitDx=0;exitDy=0;entryX=0.001;entryY=0.169;entryDx=0;entryDy=0;exitPerimeter=0;entryPerimeter=0;" edge="1" parent="1" source="LTp8fWtRzP7bLeBBjzg3-37" target="LTp8fWtRzP7bLeBBjzg3-38">
          <mxGeometry relative="1" as="geometry" />
        </mxCell>
        <mxCell id="LTp8fWtRzP7bLeBBjzg3-53" value="Create store" style="edgeLabel;html=1;align=center;verticalAlign=middle;resizable=0;points=[];" vertex="1" connectable="0" parent="LTp8fWtRzP7bLeBBjzg3-52">
          <mxGeometry x="-0.03" relative="1" as="geometry">
            <mxPoint as="offset" />
          </mxGeometry>
        </mxCell>
        <mxCell id="LTp8fWtRzP7bLeBBjzg3-58" style="edgeStyle=orthogonalEdgeStyle;rounded=0;orthogonalLoop=1;jettySize=auto;html=1;exitX=1;exitY=0.75;exitDx=0;exitDy=0;entryX=0;entryY=0.75;entryDx=0;entryDy=0;" edge="1" parent="1" source="LTp8fWtRzP7bLeBBjzg3-37" target="LTp8fWtRzP7bLeBBjzg3-38">
          <mxGeometry relative="1" as="geometry" />
        </mxCell>
        <mxCell id="LTp8fWtRzP7bLeBBjzg3-59" value="Unlock" style="edgeLabel;html=1;align=center;verticalAlign=middle;resizable=0;points=[];" vertex="1" connectable="0" parent="LTp8fWtRzP7bLeBBjzg3-58">
          <mxGeometry x="-0.0586" relative="1" as="geometry">
            <mxPoint as="offset" />
          </mxGeometry>
        </mxCell>
        <mxCell id="LTp8fWtRzP7bLeBBjzg3-37" value="" style="rounded=1;whiteSpace=wrap;html=1;" vertex="1" parent="1">
          <mxGeometry x="47.5" y="1420" width="15" height="240" as="geometry" />
        </mxCell>
        <mxCell id="LTp8fWtRzP7bLeBBjzg3-54" style="edgeStyle=orthogonalEdgeStyle;rounded=0;orthogonalLoop=1;jettySize=auto;html=1;exitX=1.045;exitY=0.333;exitDx=0;exitDy=0;entryX=0;entryY=0.5;entryDx=0;entryDy=0;exitPerimeter=0;" edge="1" parent="1" source="LTp8fWtRzP7bLeBBjzg3-38" target="LTp8fWtRzP7bLeBBjzg3-39">
          <mxGeometry relative="1" as="geometry" />
        </mxCell>
        <mxCell id="LTp8fWtRzP7bLeBBjzg3-55" value="Encrypted store save" style="edgeLabel;html=1;align=center;verticalAlign=middle;resizable=0;points=[];" vertex="1" connectable="0" parent="LTp8fWtRzP7bLeBBjzg3-54">
          <mxGeometry x="-0.0422" relative="1" as="geometry">
            <mxPoint as="offset" />
          </mxGeometry>
        </mxCell>
        <mxCell id="LTp8fWtRzP7bLeBBjzg3-56" style="edgeStyle=orthogonalEdgeStyle;rounded=0;orthogonalLoop=1;jettySize=auto;html=1;exitX=0;exitY=0.5;exitDx=0;exitDy=0;entryX=1;entryY=0.5;entryDx=0;entryDy=0;" edge="1" parent="1" source="LTp8fWtRzP7bLeBBjzg3-38" target="LTp8fWtRzP7bLeBBjzg3-37">
          <mxGeometry relative="1" as="geometry">
            <mxPoint x="63" y="1580" as="targetPoint" />
          </mxGeometry>
        </mxCell>
        <mxCell id="LTp8fWtRzP7bLeBBjzg3-57" value="Send key shares" style="edgeLabel;html=1;align=center;verticalAlign=middle;resizable=0;points=[];" vertex="1" connectable="0" parent="LTp8fWtRzP7bLeBBjzg3-56">
          <mxGeometry x="0.0301" relative="1" as="geometry">
            <mxPoint as="offset" />
          </mxGeometry>
        </mxCell>
        <mxCell id="LTp8fWtRzP7bLeBBjzg3-38" value="" style="rounded=1;whiteSpace=wrap;html=1;" vertex="1" parent="1">
          <mxGeometry x="230" y="1420" width="15" height="240" as="geometry" />
        </mxCell>
        <mxCell id="LTp8fWtRzP7bLeBBjzg3-39" value="" style="rounded=1;whiteSpace=wrap;html=1;" vertex="1" parent="1">
          <mxGeometry x="427.5" y="1455" width="15" height="90" as="geometry" />
        </mxCell>
        <mxCell id="LTp8fWtRzP7bLeBBjzg3-40" value="" style="rounded=1;whiteSpace=wrap;html=1;" vertex="1" parent="1">
          <mxGeometry x="427.5" y="1230" width="15" height="80" as="geometry" />
        </mxCell>
        <mxCell id="LTp8fWtRzP7bLeBBjzg3-47" style="edgeStyle=orthogonalEdgeStyle;rounded=0;orthogonalLoop=1;jettySize=auto;html=1;exitX=1;exitY=0.5;exitDx=0;exitDy=0;entryX=0;entryY=0.5;entryDx=0;entryDy=0;" edge="1" parent="1" source="LTp8fWtRzP7bLeBBjzg3-41" target="LTp8fWtRzP7bLeBBjzg3-40">
          <mxGeometry relative="1" as="geometry" />
        </mxCell>
        <mxCell id="LTp8fWtRzP7bLeBBjzg3-48" value="Create default store" style="edgeLabel;html=1;align=center;verticalAlign=middle;resizable=0;points=[];" vertex="1" connectable="0" parent="LTp8fWtRzP7bLeBBjzg3-47">
          <mxGeometry x="0.0635" relative="1" as="geometry">
            <mxPoint x="-2" as="offset" />
          </mxGeometry>
        </mxCell>
        <mxCell id="LTp8fWtRzP7bLeBBjzg3-41" value="" style="rounded=1;whiteSpace=wrap;html=1;" vertex="1" parent="1">
          <mxGeometry x="230" y="1170" width="15" height="200" as="geometry" />
        </mxCell>
        <mxCell id="LTp8fWtRzP7bLeBBjzg3-42" value="" style="endArrow=classic;html=1;rounded=0;exitX=0.979;exitY=0.068;exitDx=0;exitDy=0;exitPerimeter=0;edgeStyle=orthogonalEdgeStyle;entryX=1;entryY=0.25;entryDx=0;entryDy=0;" edge="1" parent="1" source="LTp8fWtRzP7bLeBBjzg3-41" target="LTp8fWtRzP7bLeBBjzg3-41">
          <mxGeometry width="50" height="50" relative="1" as="geometry">
            <mxPoint x="280" y="1230" as="sourcePoint" />
            <mxPoint x="250" y="1220" as="targetPoint" />
            <Array as="points">
              <mxPoint x="290" y="1184" />
              <mxPoint x="290" y="1220" />
            </Array>
          </mxGeometry>
        </mxCell>
        <mxCell id="LTp8fWtRzP7bLeBBjzg3-44" value="Startup" style="edgeLabel;html=1;align=center;verticalAlign=middle;resizable=0;points=[];" vertex="1" connectable="0" parent="LTp8fWtRzP7bLeBBjzg3-42">
          <mxGeometry x="-0.045" relative="1" as="geometry">
            <mxPoint as="offset" />
          </mxGeometry>
        </mxCell>
        <mxCell id="LTp8fWtRzP7bLeBBjzg3-45" value="" style="endArrow=classic;html=1;rounded=0;exitX=0.995;exitY=0.38;exitDx=0;exitDy=0;exitPerimeter=0;entryX=-0.095;entryY=0.188;entryDx=0;entryDy=0;entryPerimeter=0;" edge="1" parent="1" source="LTp8fWtRzP7bLeBBjzg3-41" target="LTp8fWtRzP7bLeBBjzg3-40">
          <mxGeometry width="50" height="50" relative="1" as="geometry">
            <mxPoint x="290" y="1270" as="sourcePoint" />
            <mxPoint x="410" y="1246" as="targetPoint" />
          </mxGeometry>
        </mxCell>
        <mxCell id="LTp8fWtRzP7bLeBBjzg3-46" value="Check default store" style="edgeLabel;html=1;align=center;verticalAlign=middle;resizable=0;points=[];" vertex="1" connectable="0" parent="LTp8fWtRzP7bLeBBjzg3-45">
          <mxGeometry x="0.0288" relative="1" as="geometry">
            <mxPoint as="offset" />
          </mxGeometry>
        </mxCell>
        <mxCell id="LTp8fWtRzP7bLeBBjzg3-51" value="" style="edgeStyle=orthogonalEdgeStyle;rounded=0;orthogonalLoop=1;jettySize=auto;html=1;" edge="1" parent="1" source="LTp8fWtRzP7bLeBBjzg3-49" target="LTp8fWtRzP7bLeBBjzg3-36">
          <mxGeometry relative="1" as="geometry" />
        </mxCell>
        <mxCell id="LTp8fWtRzP7bLeBBjzg3-49" value="&lt;font style=&quot;font-size: 8px;&quot;&gt;Print JWT root &amp;amp; 5 shares of store key&lt;/font&gt;" style="rounded=0;whiteSpace=wrap;html=1;" vertex="1" parent="1">
          <mxGeometry x="90" y="1290" width="80" height="40" as="geometry" />
        </mxCell>
        <mxCell id="LTp8fWtRzP7bLeBBjzg3-50" value="" style="endArrow=classic;html=1;rounded=0;exitX=-0.078;exitY=0.701;exitDx=0;exitDy=0;entryX=1;entryY=0.5;entryDx=0;entryDy=0;exitPerimeter=0;" edge="1" parent="1" source="LTp8fWtRzP7bLeBBjzg3-41" target="LTp8fWtRzP7bLeBBjzg3-49">
          <mxGeometry width="50" height="50" relative="1" as="geometry">
            <mxPoint x="140" y="1260" as="sourcePoint" />
            <mxPoint x="190" y="1210" as="targetPoint" />
          </mxGeometry>
        </mxCell>
        <mxCell id="LTp8fWtRzP7bLeBBjzg3-60" value="" style="endArrow=classic;html=1;rounded=0;exitX=1.027;exitY=0.844;exitDx=0;exitDy=0;exitPerimeter=0;orthogonalLoop=0;edgeStyle=orthogonalEdgeStyle;entryX=0.989;entryY=0.959;entryDx=0;entryDy=0;entryPerimeter=0;" edge="1" parent="1" source="LTp8fWtRzP7bLeBBjzg3-38" target="LTp8fWtRzP7bLeBBjzg3-38">
          <mxGeometry width="50" height="50" relative="1" as="geometry">
            <mxPoint x="270" y="1630" as="sourcePoint" />
            <mxPoint x="270" y="1650" as="targetPoint" />
            <Array as="points">
              <mxPoint x="245" y="1620" />
              <mxPoint x="290" y="1620" />
              <mxPoint x="290" y="1650" />
            </Array>
          </mxGeometry>
        </mxCell>
        <mxCell id="LTp8fWtRzP7bLeBBjzg3-61" value="&lt;font style=&quot;font-size: 9px;&quot;&gt;Combine and decrypt&lt;/font&gt;" style="edgeLabel;html=1;align=center;verticalAlign=middle;resizable=0;points=[];" vertex="1" connectable="0" parent="LTp8fWtRzP7bLeBBjzg3-60">
          <mxGeometry x="0.0692" relative="1" as="geometry">
            <mxPoint y="-8" as="offset" />
          </mxGeometry>
        </mxCell>
        <mxCell id="LTp8fWtRzP7bLeBBjzg3-62" value="" style="rounded=1;whiteSpace=wrap;html=1;" vertex="1" parent="1">
          <mxGeometry x="427.5" y="1590" width="15" height="90" as="geometry" />
        </mxCell>
        <mxCell id="LTp8fWtRzP7bLeBBjzg3-63" value="" style="endArrow=classic;startArrow=classic;html=1;rounded=0;exitX=1.053;exitY=0.794;exitDx=0;exitDy=0;exitPerimeter=0;entryX=-0.002;entryY=0.217;entryDx=0;entryDy=0;entryPerimeter=0;" edge="1" parent="1" source="LTp8fWtRzP7bLeBBjzg3-38" target="LTp8fWtRzP7bLeBBjzg3-62">
          <mxGeometry width="50" height="50" relative="1" as="geometry">
            <mxPoint x="330" y="1620" as="sourcePoint" />
            <mxPoint x="380" y="1570" as="targetPoint" />
          </mxGeometry>
        </mxCell>
        <mxCell id="LTp8fWtRzP7bLeBBjzg3-64" value="Get store" style="edgeLabel;html=1;align=center;verticalAlign=middle;resizable=0;points=[];" vertex="1" connectable="0" parent="LTp8fWtRzP7bLeBBjzg3-63">
          <mxGeometry x="0.0316" y="-1" relative="1" as="geometry">
            <mxPoint as="offset" />
          </mxGeometry>
        </mxCell>
      </root>
    </mxGraphModel>
  </diagram>
</mxfile>
